<svg width="28" height="28" viewBox="0 0 28 28" fill="none" xmlns="http://www.w3.org/2000/svg">
<path opacity="0.1" d="M25.9958 19.3932V22.0447C25.9973 22.621 25.8851 23.1918 25.6657 23.7247C25.4462 24.2575 25.1237 24.7418 24.7168 25.1498C24.3099 25.5578 23.8264 25.8815 23.2942 26.1024C22.762 26.3232 21.0386 26.4369 20.4623 26.4369H6.31732C5.15137 26.4339 4.03422 25.9686 3.21085 25.143C2.38748 24.3175 1.9251 23.1991 1.92511 22.0332V4.1992C1.92239 3.85235 2.01573 3.51152 2.19478 3.21446C2.37383 2.91739 2.63162 2.67568 2.93958 2.51609C3.24688 2.35696 3.59177 2.28467 3.9371 2.30702C4.28244 2.32936 4.61513 2.44549 4.89936 2.6429L6.34037 3.6689C6.3614 3.68105 6.38526 3.68744 6.40954 3.68744C6.43382 3.68744 6.45768 3.68105 6.47871 3.6689L8.78433 1.97427C9.09473 1.73752 9.47081 1.60266 9.86093 1.58821C10.2511 1.57376 10.6361 1.68043 10.9631 1.89358L13.2688 3.43834C13.2964 3.45575 13.3284 3.46499 13.361 3.46499C13.3936 3.46499 13.4256 3.45575 13.4532 3.43834L14.8596 2.51609C15.1463 2.33247 15.477 2.22913 15.8172 2.21687C16.1574 2.20461 16.4946 2.28387 16.7938 2.44639C17.0929 2.60891 17.3429 2.84872 17.5177 3.14081C17.6926 3.4329 17.7859 3.76656 17.7878 4.10697V15.3815H22.7795C23.213 15.3721 23.6441 15.4503 24.0468 15.6112C24.4495 15.7721 24.8157 16.0126 25.1234 16.3181C25.4311 16.6237 25.6741 16.9882 25.8379 17.3898C26.0016 17.7913 26.0828 18.2218 26.0765 18.6554L25.9958 19.3932Z" fill="#99A1B7"/>
<path d="M9.40695 10.1809C9.40695 10.4123 9.315 10.6343 9.15133 10.798C8.98766 10.9617 8.76568 11.0536 8.53422 11.0536H5.93931C5.70785 11.0536 5.48587 10.9617 5.3222 10.798C5.15853 10.6343 5.06659 10.4123 5.06659 10.1809C5.06659 9.94941 5.15853 9.72743 5.3222 9.56376C5.48587 9.4001 5.70785 9.30815 5.93931 9.30815H8.53422C8.76474 9.31116 8.98498 9.40408 9.148 9.5671C9.31102 9.73012 9.40393 9.95035 9.40695 10.1809ZM13.3051 16.9416H10.7102C10.4788 16.9416 10.2568 17.0335 10.0931 17.1972C9.92944 17.3609 9.83749 17.5829 9.83749 17.8143C9.83749 18.0458 9.92944 18.2678 10.0931 18.4314C10.2568 18.5951 10.4788 18.687 10.7102 18.687H13.3051C13.5366 18.687 13.7586 18.5951 13.9222 18.4314C14.0859 18.2678 14.1778 18.0458 14.1778 17.8143C14.1778 17.5829 14.0859 17.3609 13.9222 17.1972C13.7586 17.0335 13.5366 16.9416 13.3051 16.9416ZM8.53422 13.1249H5.93931C5.70785 13.1249 5.48587 13.2168 5.3222 13.3805C5.15853 13.5442 5.06659 13.7661 5.06659 13.9976C5.06659 14.2291 5.15853 14.451 5.3222 14.6147C5.48587 14.7784 5.70785 14.8703 5.93931 14.8703H8.53422C8.76568 14.8703 8.98766 14.7784 9.15133 14.6147C9.315 14.451 9.40695 14.2291 9.40695 13.9976C9.40695 13.7661 9.315 13.5442 9.15133 13.3805C8.98766 13.2168 8.76568 13.1249 8.53422 13.1249ZM13.3051 9.30815H11.7226C11.4911 9.30815 11.2691 9.4001 11.1055 9.56376C10.9418 9.72743 10.8499 9.94941 10.8499 10.1809C10.8499 10.4123 10.9418 10.6343 11.1055 10.798C11.2691 10.9617 11.4911 11.0536 11.7226 11.0536H13.3051C13.5366 11.0536 13.7586 10.9617 13.9222 10.798C14.0859 10.6343 14.1778 10.4123 14.1778 10.1809C14.1778 9.94941 14.0859 9.72743 13.9222 9.56376C13.7586 9.4001 13.5366 9.30815 13.3051 9.30815ZM26.1051 19.4318V22.1081C26.1066 22.6898 25.9934 23.266 25.7719 23.8039C25.5503 24.3417 25.2249 24.8305 24.8141 25.2424C24.4034 25.6542 23.9154 25.9809 23.3781 26.2039C22.8409 26.4268 21.1013 26.5416 20.5197 26.5416H6.24186C5.06497 26.5385 3.93733 26.0688 3.10623 25.2355C2.27513 24.4023 1.8084 23.2734 1.80841 22.0965V4.09506C1.80566 3.74496 1.89988 3.40093 2.08061 3.10108C2.26135 2.80122 2.52155 2.55724 2.83241 2.39616C3.14259 2.23553 3.49072 2.16256 3.83929 2.18512C4.18787 2.20767 4.52369 2.32489 4.81059 2.52416L6.26513 3.55979C6.28636 3.57205 6.31044 3.5785 6.33495 3.5785C6.35946 3.5785 6.38354 3.57205 6.40477 3.55979L8.73204 1.84925C9.04535 1.61027 9.42497 1.47414 9.81875 1.45956C10.2125 1.44498 10.6012 1.55265 10.9313 1.76779L13.2586 3.32706C13.2864 3.34464 13.3187 3.35396 13.3517 3.35396C13.3846 3.35396 13.4169 3.34464 13.4448 3.32706L14.8644 2.39616C15.1537 2.2108 15.4875 2.1065 15.8309 2.09412C16.1743 2.08175 16.5147 2.16176 16.8167 2.3258C17.1186 2.48984 17.371 2.73191 17.5475 3.02674C17.7239 3.32157 17.8181 3.65836 17.82 4.00197V15.3823H22.8586C23.2962 15.3729 23.7313 15.4518 24.1378 15.6142C24.5443 15.7767 24.9139 16.0193 25.2245 16.3278C25.5351 16.6362 25.7804 17.0041 25.9457 17.4095C26.111 17.8148 26.1929 18.2493 26.1866 18.687L26.1051 19.4318ZM16.9938 24.8078C16.4042 24.0314 16.0853 23.0831 16.0862 22.1081V16.29V4.01361C16.0881 3.98331 16.0814 3.95309 16.067 3.92636C16.0527 3.89963 16.0311 3.87746 16.0048 3.86234C15.9779 3.84807 15.9479 3.84061 15.9175 3.84061C15.8871 3.84061 15.8571 3.84807 15.8302 3.86234L14.4338 4.78161C14.1212 4.98165 13.7578 5.08795 13.3866 5.08795C13.0154 5.08795 12.652 4.98165 12.3393 4.78161L10.012 3.2107C9.98196 3.19334 9.94785 3.1842 9.91313 3.1842C9.8784 3.1842 9.84429 3.19334 9.81422 3.2107L7.5684 4.94452C7.23865 5.20621 6.83163 5.35153 6.41071 5.35784C5.98978 5.36416 5.57858 5.23111 5.24113 4.97943L3.80986 3.95543C3.7796 3.94564 3.74703 3.94564 3.71677 3.95543H3.63532C3.60899 3.97055 3.58742 3.99272 3.57302 4.01945C3.55863 4.04618 3.55199 4.0764 3.55386 4.1067V22.1081C3.55385 22.8221 3.83668 23.507 4.34045 24.013C4.84421 24.5189 5.52789 24.8047 6.24186 24.8078H16.9938ZM24.3829 18.687C24.3829 18.2848 24.2239 17.8988 23.9406 17.6133C23.6572 17.3277 23.2725 17.1658 22.8702 17.1627H17.8317V22.0034C17.8299 22.4793 17.9458 22.9483 18.1691 23.3685C18.3924 23.7888 18.7162 24.1473 19.1117 24.4121L19.3095 24.5285L19.4957 24.6216C19.698 24.7003 19.9089 24.755 20.124 24.7845C20.4973 24.8459 22.043 24.8268 22.4082 24.7285C22.7735 24.6301 23.1135 24.4548 23.4055 24.2143C23.7118 23.9606 23.9582 23.6423 24.1272 23.2822C24.2962 22.9221 24.3835 22.5292 24.3829 22.1314V18.687ZM13.3051 13.1481H11.7226C11.4911 13.1481 11.2691 13.2401 11.1055 13.4038C10.9418 13.5674 10.8499 13.7894 10.8499 14.0209C10.8499 14.2523 10.9418 14.4743 11.1055 14.638C11.2691 14.8017 11.4911 14.8936 11.7226 14.8936H13.3051C13.5366 14.8936 13.7586 14.8017 13.9222 14.638C14.0859 14.4743 14.1778 14.2523 14.1778 14.0209C14.1778 13.7894 14.0859 13.5674 13.9222 13.4038C13.7586 13.2401 13.5366 13.1481 13.3051 13.1481Z" fill="#99A1B7"/>
</svg>
