<svg width="28" height="28" viewBox="0 0 28 28" fill="none" xmlns="http://www.w3.org/2000/svg">
<path opacity="0.1" d="M14.0247 27.3001C13.5639 27.3025 13.1072 27.2127 12.6816 27.0361C12.2559 26.8595 11.8699 26.5995 11.5462 26.2715L9.79875 24.5241C9.76603 24.4921 9.72728 24.4668 9.68474 24.4498C9.6422 24.4328 9.59671 24.4243 9.5509 24.425H7.07231C6.14429 24.425 5.25409 24.0572 4.59672 23.4021C3.93935 22.7471 3.56839 21.8582 3.56511 20.9302V18.4516C3.56648 18.4057 3.55839 18.36 3.54133 18.3174C3.52427 18.2747 3.49862 18.236 3.46597 18.2037L1.73096 16.4811C1.40422 16.1563 1.14492 15.7701 0.967982 15.3448C0.791042 14.9194 0.699951 14.4633 0.699951 14.0025C0.699951 13.5418 0.791042 13.0857 0.967982 12.6603C1.14492 12.2349 1.40422 11.8488 1.73096 11.524L3.47836 9.76417C3.51306 9.73343 3.54009 9.69502 3.55731 9.65199C3.57452 9.60895 3.58144 9.56249 3.57751 9.51631V7.03772C3.58079 6.10971 3.95174 5.22082 4.60911 4.56577C5.26649 3.91072 6.15668 3.54292 7.0847 3.54292H9.56329C9.6091 3.54358 9.65459 3.53515 9.69713 3.51814C9.73968 3.50112 9.77842 3.47585 9.81115 3.44378L11.5462 1.69638C12.213 1.05711 13.101 0.700195 14.0247 0.700195C14.9485 0.700195 15.8365 1.05711 16.5033 1.69638L18.2507 3.44378C18.313 3.50667 18.3977 3.54232 18.4862 3.54292H20.9648C21.8928 3.5462 22.7817 3.91716 23.4367 4.57453C24.0918 5.2319 24.4596 6.1221 24.4596 7.05012V9.5287C24.4589 9.57452 24.4673 9.62001 24.4844 9.66255C24.5014 9.70509 24.5267 9.74384 24.5587 9.77656L26.3185 11.524C26.9724 12.1832 27.3393 13.0741 27.3393 14.0025C27.3393 14.931 26.9724 15.8219 26.3185 16.4811L24.5587 18.2037C24.498 18.2724 24.463 18.36 24.4596 18.4516V20.9302C24.4596 21.8571 24.0914 22.746 23.436 23.4014C22.7806 24.0568 21.8917 24.425 20.9648 24.425H18.4862C18.3977 24.4256 18.313 24.4612 18.2507 24.5241L16.5033 26.2715C16.1787 26.5984 15.7925 26.8576 15.3671 27.0342C14.9416 27.2107 14.4854 27.3011 14.0247 27.3001Z" fill="#99A1B7"/>
<path d="M14.0051 27.3967C13.5409 27.3991 13.081 27.3087 12.6522 27.1307C12.2235 26.9528 11.8346 26.691 11.5085 26.3606L9.74838 24.6005C9.71542 24.5682 9.67639 24.5427 9.63353 24.5256C9.59068 24.5084 9.54486 24.4999 9.49872 24.5006H7.00208C6.0673 24.5006 5.17062 24.1301 4.50846 23.4703C3.8463 22.8105 3.47265 21.9151 3.46934 20.9803V18.4837C3.47072 18.4375 3.46257 18.3914 3.44539 18.3485C3.4282 18.3055 3.40237 18.2666 3.36948 18.2341L1.62183 16.4989C1.29271 16.1717 1.03153 15.7827 0.853296 15.3543C0.675067 14.9258 0.583313 14.4663 0.583313 14.0023C0.583313 13.5382 0.675067 13.0787 0.853296 12.6502C1.03153 12.2218 1.29271 11.8328 1.62183 11.5056L3.38196 9.73301C3.41691 9.70205 3.44414 9.66336 3.46148 9.62001C3.47881 9.57666 3.48578 9.52986 3.48183 9.48335V6.98671C3.48513 6.05194 3.85878 5.15657 4.52094 4.49675C5.1831 3.83694 6.07978 3.46645 7.01456 3.46646H9.5112C9.55734 3.46712 9.60317 3.45863 9.64602 3.44149C9.68887 3.42435 9.7279 3.3989 9.76086 3.36659L11.5085 1.60646C12.1802 0.962537 13.0747 0.603027 14.0051 0.603027C14.9356 0.603027 15.8301 0.962537 16.5018 1.60646L18.2619 3.36659C18.3246 3.42994 18.4099 3.46585 18.4991 3.46646H20.9957C21.9305 3.46976 22.8259 3.84342 23.4857 4.50557C24.1455 5.16773 24.516 6.06441 24.516 6.99919V9.49583C24.5153 9.54198 24.5238 9.5878 24.5409 9.63065C24.5581 9.6735 24.5835 9.71253 24.6158 9.74549L26.3884 11.5056C27.0471 12.1696 27.4166 13.067 27.4166 14.0023C27.4166 14.9375 27.0471 15.8349 26.3884 16.4989L24.6158 18.2341C24.5547 18.3032 24.5194 18.3915 24.516 18.4837V20.9803C24.516 21.914 24.1451 22.8094 23.4849 23.4695C22.8247 24.1297 21.9293 24.5006 20.9957 24.5006H18.4991C18.4099 24.5012 18.3246 24.5371 18.2619 24.6005L16.5018 26.3606C16.1748 26.6898 15.7858 26.9509 15.3573 27.1288C14.9287 27.3066 14.4691 27.3977 14.0051 27.3967ZM7.01456 5.33893C6.57524 5.3422 6.15485 5.51817 5.84419 5.82882C5.53354 6.13948 5.35757 6.55988 5.3543 6.99919V9.49583C5.35248 10.0849 5.11938 10.6498 4.70518 11.0687L2.94505 12.8164C2.63783 13.1271 2.46554 13.5465 2.46554 13.9835C2.46554 14.4205 2.63783 14.8399 2.94505 15.1507L4.70518 16.9108C4.91196 17.1171 5.0758 17.3623 5.18722 17.6323C5.29864 17.9023 5.35543 18.1916 5.3543 18.4837V20.9803C5.3576 21.4185 5.53397 21.8376 5.84497 22.1463C6.15598 22.4549 6.57639 22.6281 7.01456 22.6281H9.5112C10.1003 22.6299 10.6652 22.8631 11.0841 23.2773L12.8442 25.0374C13.1616 25.3367 13.5814 25.5034 14.0176 25.5034C14.4539 25.5034 14.8737 25.3367 15.191 25.0374L16.9512 23.2773C17.3647 22.8626 17.926 22.6292 18.5116 22.6281H21.0082C21.4452 22.6281 21.8643 22.4545 22.1734 22.1455C22.4824 21.8365 22.656 21.4174 22.656 20.9803V18.4837C22.6591 17.8949 22.892 17.3305 23.3051 16.9108L25.0777 15.1507C25.382 14.8384 25.5522 14.4196 25.5522 13.9835C25.5522 13.5475 25.382 13.1287 25.0777 12.8164L23.2926 11.0562C22.8784 10.6373 22.6453 10.0725 22.6435 9.48335V6.98671C22.6402 6.5507 22.4656 6.13348 22.1573 5.82517C21.849 5.51685 21.4317 5.3422 20.9957 5.33893H18.4991C18.2087 5.3412 17.9209 5.28488 17.6528 5.17335C17.3846 5.06181 17.1418 4.89736 16.9387 4.68981L15.1786 2.92968C14.8612 2.63034 14.4414 2.46361 14.0051 2.46361C13.5689 2.46361 13.1491 2.63034 12.8317 2.92968L11.0716 4.68981C10.8666 4.8983 10.6216 5.06326 10.3514 5.1748C10.0811 5.28634 9.79108 5.34217 9.49872 5.33893H7.01456ZM10.2602 18.6834C10.1369 18.6862 10.0143 18.6632 9.9004 18.6159C9.78648 18.5687 9.68368 18.4981 9.59858 18.4088C9.42325 18.2333 9.32477 17.9953 9.32477 17.7472C9.32477 17.4991 9.42325 17.2611 9.59858 17.0856L17.0885 9.59569C17.264 9.42037 17.502 9.32189 17.7501 9.32189C17.9982 9.32189 18.2362 9.42037 18.4117 9.59569C18.587 9.77124 18.6855 10.0092 18.6855 10.2573C18.6855 10.5054 18.587 10.7434 18.4117 10.9189L10.9218 18.4088C10.8354 18.4963 10.7323 18.5657 10.6187 18.6129C10.5051 18.66 10.3832 18.684 10.2602 18.6834ZM10.2602 9.00899C10.0133 9.00899 9.77194 9.0822 9.56666 9.21937C9.36138 9.35653 9.20138 9.55149 9.10689 9.77959C9.01241 10.0077 8.98769 10.2587 9.03586 10.5008C9.08402 10.743 9.20292 10.9654 9.37749 11.14C9.55208 11.3146 9.7745 11.4335 10.0167 11.4816C10.2588 11.5298 10.5098 11.5051 10.7379 11.4106C10.966 11.3161 11.161 11.1561 11.2981 10.9508C11.4353 10.7455 11.5085 10.5042 11.5085 10.2573C11.5085 9.92623 11.377 9.60871 11.1429 9.37461C10.9088 9.1405 10.5913 9.00899 10.2602 9.00899ZM17.7501 16.4989C17.5032 16.4989 17.2619 16.5721 17.0566 16.7093C16.8513 16.8464 16.6913 17.0414 16.5968 17.2695C16.5023 17.4976 16.4776 17.7486 16.5258 17.9907C16.5739 18.2329 16.6928 18.4553 16.8674 18.6299C17.042 18.8045 17.2644 18.9234 17.5066 18.9715C17.7487 19.0197 17.9997 18.995 18.2278 18.9005C18.4559 18.806 18.6509 18.646 18.788 18.4407C18.9252 18.2354 18.9984 17.9941 18.9984 17.7472C18.9984 17.4161 18.8669 17.0986 18.6328 16.8645C18.3987 16.6304 18.0812 16.4989 17.7501 16.4989Z" fill="#99A1B7"/>
</svg>
