<svg width="21" height="22" viewBox="0 0 21 22" fill="none" xmlns="http://www.w3.org/2000/svg">
<path d="M20.527 9.05685C20.527 8.95666 20.5871 8.8665 20.6071 8.76631C20.6547 8.60248 20.6882 8.4349 20.7073 8.26538V8.03495C20.7323 7.78176 20.7323 7.52672 20.7073 7.27353L20.3266 4.26794C20.2251 3.38523 19.878 2.5487 19.3247 1.85345C18.8691 1.27704 18.2892 0.810971 17.6282 0.490037C16.9673 0.169104 16.2424 0.00159104 15.5076 0H5.22849C4.02828 0.00409967 2.87116 0.44774 1.97585 1.24706C1.08053 2.04639 0.509058 3.14601 0.369448 4.33807L0.0187958 7.50396C-0.00626526 7.7471 -0.00626526 7.99218 0.0187958 8.23532V8.45573C0.0367485 8.61231 0.0703109 8.76669 0.118982 8.91659C0.139722 9.01499 0.166489 9.11202 0.199131 9.20713C0.199131 9.31733 0.289299 9.41752 0.339392 9.52773C0.389485 9.63793 0.419541 9.73812 0.479653 9.8383V15.9897C0.482302 17.4503 1.06369 18.8504 2.09649 19.8832C3.12929 20.916 4.52931 21.4974 5.98991 21.5H14.6961C15.4197 21.5 16.1362 21.3575 16.8048 21.0806C17.4733 20.8036 18.0808 20.3978 18.5924 19.8861C19.1041 19.3744 19.51 18.767 19.7869 18.0984C20.0638 17.4299 20.2064 16.7134 20.2064 15.9897V9.7281C20.2599 9.63262 20.3036 9.53191 20.3366 9.42754C20.4091 9.30881 20.4727 9.18492 20.527 9.05685ZM15.5176 1.43267C16.028 1.43389 16.5315 1.54976 16.991 1.77172C17.4506 1.99369 17.8544 2.31607 18.1726 2.71505C18.5612 3.19924 18.8075 3.78201 18.8839 4.39818L19.2646 7.40378C19.2797 7.56706 19.2797 7.7314 19.2646 7.89469V8.07502C19.2694 8.16513 19.2694 8.25542 19.2646 8.34553C19.2646 8.42568 19.2145 8.51584 19.1744 8.60601C19.1622 8.651 19.1454 8.69464 19.1243 8.73625C19.0774 8.84805 19.0204 8.95536 18.954 9.05685C18.8739 9.16706 18.8037 9.27726 18.7236 9.37745C18.4849 9.6471 18.192 9.86326 17.8639 10.0118C17.5359 10.1602 17.1801 10.2377 16.8201 10.239C16.1856 10.2576 15.5676 10.0356 15.0901 9.61748C14.6125 9.19939 14.3107 8.61618 14.2453 7.98486L13.9347 4.4082L13.6842 1.40261L15.5176 1.43267ZM12.2415 1.43267V1.71319L12.7525 7.72437C12.7818 8.05095 12.7426 8.38004 12.6374 8.69059C12.5321 9.00113 12.3632 9.28626 12.1413 9.52773C11.9154 9.76009 11.6452 9.9448 11.3466 10.0709C11.048 10.197 10.7272 10.262 10.4031 10.262C10.079 10.262 9.75819 10.197 9.45963 10.0709C9.16107 9.9448 8.89083 9.76009 8.66488 9.52773C8.44207 9.29195 8.27016 9.01284 8.15986 8.70776C8.04955 8.40269 8.0032 8.07818 8.02369 7.75443L8.23408 3.58667L8.37434 1.43267H12.2415ZM1.83217 4.49837C1.92105 3.65867 2.31686 2.88136 2.94366 2.31558C3.57046 1.74979 4.3841 1.43538 5.22849 1.43267H6.93166L6.51087 8.07502C6.47272 8.67663 6.20718 9.2412 5.7681 9.65423C5.32902 10.0673 4.74929 10.2978 4.14648 10.2992H3.8359C3.50292 10.2982 3.17386 10.2273 2.87008 10.091C2.5663 9.9546 2.2946 9.75588 2.07262 9.50769C1.99697 9.42083 1.92987 9.32689 1.87224 9.22717C1.80589 9.12568 1.74888 9.01837 1.70193 8.90657C1.69816 8.87663 1.69816 8.84634 1.70193 8.8164C1.66295 8.72946 1.63275 8.63884 1.61176 8.5459C1.60606 8.47254 1.60606 8.39885 1.61176 8.32549C1.60693 8.26213 1.60693 8.19849 1.61176 8.13514C1.59676 7.98523 1.59676 7.8342 1.61176 7.6843L1.83217 4.49837ZM8.44447 20.0273V18.0235C8.44447 17.4921 8.65558 16.9825 9.03135 16.6067C9.40712 16.2309 9.91678 16.0198 10.4482 16.0198C10.9796 16.0198 11.4893 16.2309 11.865 16.6067C12.2408 16.9825 12.4519 17.4921 12.4519 18.0235V20.0273H8.44447ZM14.7262 20.0273H13.9247V18.0235C13.9247 17.1015 13.5584 16.2173 12.9064 15.5653C12.2545 14.9133 11.3702 14.5471 10.4482 14.5471C9.52618 14.5471 8.64193 14.9133 7.98997 15.5653C7.338 16.2173 6.97173 17.1015 6.97173 18.0235V20.0273H5.96987C4.90702 20.0273 3.88771 19.605 3.13617 18.8535C2.38462 18.102 1.96241 17.0826 1.96241 16.0198V11.261C2.52763 11.5827 3.16552 11.7551 3.81586 11.7619H4.12644C4.73391 11.7589 5.33204 11.6121 5.87187 11.3334C6.41169 11.0548 6.87786 10.6523 7.23222 10.1589C7.32035 10.298 7.42095 10.4288 7.53278 10.5496C7.89279 10.9362 8.32854 11.2444 8.81288 11.4552C9.29723 11.666 9.81979 11.7748 10.348 11.7748C10.8762 11.7748 11.3988 11.666 11.8831 11.4552C12.3675 11.2444 12.8032 10.9362 13.1633 10.5496C13.2755 10.4195 13.3792 10.2823 13.4738 10.1389C14.0524 10.9495 14.9159 11.5114 15.8914 11.7121C16.8668 11.9127 17.8821 11.7373 18.7336 11.2209V16.0198C18.7336 16.5461 18.63 17.0672 18.4286 17.5534C18.2272 18.0396 17.932 18.4814 17.5599 18.8535C17.1877 19.2256 16.746 19.5208 16.2597 19.7222C15.7735 19.9236 15.2524 20.0273 14.7262 20.0273Z" fill="url(#paint0_linear_3741_982)"/>
<defs>
<linearGradient id="paint0_linear_3741_982" x1="21.5471" y1="20.485" x2="-1.49409" y2="1.84707" gradientUnits="userSpaceOnUse">
<stop stop-color="#7CFAF7"/>
<stop offset="1" stop-color="#5C5E9B"/>
</linearGradient>
</defs>
</svg>
