<svg width="24" height="24" viewBox="0 0 24 24" fill="none" xmlns="http://www.w3.org/2000/svg">
<path opacity="0.1" d="M8.8207 11.2751H3.85305C3.19768 11.2621 2.57354 10.9926 2.1147 10.5244C1.65585 10.0563 1.3989 9.4269 1.39903 8.7714V3.80375C1.40946 3.14664 1.67784 2.51997 2.14625 2.059C2.61466 1.59803 3.24553 1.33971 3.90273 1.33979H8.87038C9.5344 1.33979 10.1712 1.60357 10.6408 2.07311C11.1103 2.54264 11.3741 3.17947 11.3741 3.84349V8.81114C11.3689 9.14079 11.2987 9.46618 11.1674 9.76862C11.0362 10.0711 10.8465 10.3446 10.6092 10.5735C10.372 10.8025 10.0919 10.9823 9.78494 11.1027C9.47801 11.2231 9.15033 11.2817 8.8207 11.2751ZM20.2066 11.2751H15.2389C14.5749 11.2751 13.9381 11.0113 13.4685 10.5418C12.999 10.0722 12.7352 9.43542 12.7352 8.7714V3.80375C12.7352 3.13972 12.999 2.5029 13.4685 2.03336C13.9381 1.56383 14.5749 1.30005 15.2389 1.30005H20.2066C20.8706 1.30005 21.5074 1.56383 21.9769 2.03336C22.4465 2.5029 22.7103 3.13972 22.7103 3.80375V8.7714C22.7104 9.4269 22.4534 10.0563 21.9946 10.5244C21.5357 10.9926 20.9116 11.2621 20.2562 11.2751H20.2066ZM20.147 22.7007H15.3283C14.6643 22.7007 14.0275 22.4369 13.5579 21.9674C13.0884 21.4978 12.8246 20.861 12.8246 20.197V15.2293C12.8246 14.5653 13.0884 13.9285 13.5579 13.459C14.0275 12.9894 14.6643 12.7256 15.3283 12.7256H20.2463C20.9103 12.7256 21.5471 12.9894 22.0167 13.459C22.4862 13.9285 22.75 14.5653 22.75 15.2293V20.197C22.75 20.861 22.4862 21.4978 22.0167 21.9674C21.5471 22.4369 20.9103 22.7007 20.2463 22.7007H20.147ZM8.72135 22.7007H3.7537C3.08968 22.7007 2.45285 22.4369 1.98332 21.9674C1.51378 21.4978 1.25 20.861 1.25 20.197V15.2293C1.25 14.5653 1.51378 13.9285 1.98332 13.459C2.45285 12.9894 3.08968 12.7256 3.7537 12.7256H8.72135C9.38537 12.7256 10.0222 12.9894 10.4917 13.459C10.9613 13.9285 11.225 14.5653 11.225 15.2293V20.197C11.2256 20.8442 10.9755 21.4664 10.5272 21.9332C10.0789 22.3999 9.46735 22.675 8.8207 22.7007H8.72135Z" fill="#99A1B7"/>
<path d="M8.8207 11.2751H3.85305C3.19768 11.2621 2.57354 10.9926 2.1147 10.5244C1.65585 10.0563 1.3989 9.4269 1.39903 8.7714V3.80375C1.40946 3.14664 1.67784 2.51997 2.14625 2.059C2.61466 1.59803 3.24553 1.33971 3.90273 1.33979H8.87038C9.5344 1.33979 10.1712 1.60357 10.6408 2.07311C11.1103 2.54264 11.3741 3.17947 11.3741 3.84349V8.81114C11.3689 9.14079 11.2987 9.46618 11.1674 9.76862C11.0362 10.0711 10.8465 10.3446 10.6092 10.5735C10.372 10.8025 10.0919 10.9823 9.78494 11.1027C9.47801 11.2231 9.15033 11.2817 8.8207 11.2751ZM3.85305 2.83009C3.58955 2.83009 3.33684 2.93476 3.15052 3.12108C2.96419 3.30741 2.85952 3.56012 2.85952 3.82362V8.79127C2.85952 9.05477 2.96419 9.30748 3.15052 9.4938C3.33684 9.68012 3.58955 9.7848 3.85305 9.7848H8.8207C9.0842 9.7848 9.33691 9.68012 9.52323 9.4938C9.70956 9.30748 9.81423 9.05477 9.81423 8.79127V3.82362C9.81423 3.56012 9.70956 3.30741 9.52323 3.12108C9.33691 2.93476 9.0842 2.83009 8.8207 2.83009H3.85305ZM20.2066 11.2751H15.2389C14.5749 11.2751 13.9381 11.0113 13.4685 10.5418C12.999 10.0722 12.7352 9.43542 12.7352 8.7714V3.80375C12.7352 3.13972 12.999 2.5029 13.4685 2.03336C13.9381 1.56383 14.5749 1.30005 15.2389 1.30005H20.2066C20.8706 1.30005 21.5074 1.56383 21.9769 2.03336C22.4465 2.5029 22.7103 3.13972 22.7103 3.80375V8.7714C22.7104 9.4269 22.4534 10.0563 21.9946 10.5244C21.5357 10.9926 20.9116 11.2621 20.2562 11.2751H20.2066ZM15.2389 2.83009C14.9754 2.83009 14.7227 2.93476 14.5364 3.12108C14.3501 3.30741 14.2454 3.56012 14.2454 3.82362V8.79127C14.2454 9.05477 14.3501 9.30748 14.5364 9.4938C14.7227 9.68012 14.9754 9.7848 15.2389 9.7848H20.2066C20.4701 9.7848 20.7228 9.68012 20.9091 9.4938C21.0954 9.30748 21.2001 9.05477 21.2001 8.79127V3.82362C21.2001 3.56012 21.0954 3.30741 20.9091 3.12108C20.7228 2.93476 20.4701 2.83009 20.2066 2.83009H15.2389ZM20.147 22.7007H15.3283C14.6643 22.7007 14.0275 22.4369 13.5579 21.9674C13.0884 21.4978 12.8246 20.861 12.8246 20.197V15.2293C12.8246 14.5653 13.0884 13.9285 13.5579 13.459C14.0275 12.9894 14.6643 12.7256 15.3283 12.7256H20.2463C20.9103 12.7256 21.5471 12.9894 22.0167 13.459C22.4862 13.9285 22.75 14.5653 22.75 15.2293V20.197C22.75 20.861 22.4862 21.4978 22.0167 21.9674C21.5471 22.4369 20.9103 22.7007 20.2463 22.7007H20.147ZM15.229 14.2557C14.9655 14.2557 14.7128 14.3604 14.5264 14.5467C14.3401 14.733 14.2354 14.9857 14.2354 15.2492V20.2169C14.2354 20.4804 14.3401 20.7331 14.5264 20.9194C14.7128 21.1057 14.9655 21.2104 15.229 21.2104H20.147C20.4105 21.2104 20.6632 21.1057 20.8495 20.9194C21.0358 20.7331 21.1405 20.4804 21.1405 20.2169V15.2492C21.1405 14.9857 21.0358 14.733 20.8495 14.5467C20.6632 14.3604 20.4105 14.2557 20.147 14.2557H15.229ZM8.72135 22.7007H3.7537C3.08968 22.7007 2.45285 22.4369 1.98332 21.9674C1.51378 21.4978 1.25 20.861 1.25 20.197V15.2293C1.25 14.5653 1.51378 13.9285 1.98332 13.459C2.45285 12.9894 3.08968 12.7256 3.7537 12.7256H8.72135C9.38537 12.7256 10.0222 12.9894 10.4917 13.459C10.9613 13.9285 11.225 14.5653 11.225 15.2293V20.197C11.2256 20.8442 10.9755 21.4664 10.5272 21.9332C10.0789 22.3999 9.46735 22.675 8.8207 22.7007H8.72135ZM3.7537 14.2557C3.4902 14.2557 3.23749 14.3604 3.05116 14.5467C2.86484 14.733 2.76017 14.9857 2.76017 15.2492V20.2169C2.76017 20.4804 2.86484 20.7331 3.05116 20.9194C3.23749 21.1057 3.4902 21.2104 3.7537 21.2104H8.72135C8.98485 21.2104 9.23756 21.1057 9.42388 20.9194C9.6102 20.7331 9.71488 20.4804 9.71488 20.2169V15.2492C9.71488 14.9857 9.6102 14.733 9.42388 14.5467C9.23756 14.3604 8.98485 14.2557 8.72135 14.2557H3.7537Z" fill="#99A1B7"/>
</svg>
