<svg width="44" height="44" viewBox="0 0 44 44" fill="none" xmlns="http://www.w3.org/2000/svg">
<path d="M18 2.3094C20.4752 0.880338 23.5248 0.880339 26 2.3094L37.0526 8.6906C39.5278 10.1197 41.0526 12.7607 41.0526 15.6188V28.3812C41.0526 31.2393 39.5278 33.8803 37.0526 35.3094L26 41.6906C23.5248 43.1197 20.4752 43.1197 18 41.6906L6.94744 35.3094C4.47223 33.8803 2.94744 31.2393 2.94744 28.3812V15.6188C2.94744 12.7607 4.47223 10.1197 6.94744 8.6906L18 2.3094Z" fill="white"/>
<path d="M18.25 2.74219C20.5705 1.40252 23.4295 1.40252 25.75 2.74219L36.8027 9.12402C39.1231 10.4638 40.5527 12.9398 40.5527 15.6191V28.3809C40.5527 31.0602 39.1231 33.5362 36.8027 34.876L25.75 41.2578C23.5019 42.5557 20.7484 42.5959 18.4688 41.3789L18.25 41.2578L7.19727 34.876C4.87694 33.5362 3.44727 31.0602 3.44727 28.3809V15.6191C3.44727 12.9398 4.87694 10.4638 7.19727 9.12402L18.25 2.74219Z" stroke="#FF6F1E" stroke-opacity="0.2"/>
<path opacity="0.1" d="M25.12 14.125H18.955C17.6249 14.1406 16.3549 14.6754 15.422 15.6127C14.4891 16.55 13.969 17.8137 13.975 19.1285V25.0586C13.9748 25.6933 14.097 26.3222 14.335 26.9117C14.4183 27.1244 14.5186 27.3301 14.635 27.527L14.71 27.6604C14.8075 27.816 14.905 27.9569 15.01 28.0977L15.1375 28.2608C15.25 28.3942 15.37 28.5202 15.49 28.6388L15.7075 28.839L15.9925 29.0614C16.0975 29.1429 16.21 29.217 16.3225 29.2912C16.435 29.3653 16.555 29.432 16.6675 29.4913L16.9075 29.6099C17.065 29.6766 17.2225 29.7433 17.3875 29.7952L17.545 29.8471C17.7272 29.9004 17.9126 29.9425 18.1 29.9731H18.28C18.5011 30.0051 18.7241 30.0225 18.9475 30.025H25.1125C26.4375 30.0114 27.7038 29.4826 28.6372 28.5531C29.5706 27.6236 30.0962 26.3682 30.1 25.0586V19.1285C30.1061 17.8137 29.5859 16.55 28.6531 15.6127C27.7202 14.6754 26.4502 14.1406 25.12 14.125Z" fill="#FF6F1E"/>
<path d="M25.0825 13.9375H18.9175C17.5873 13.9533 16.3173 14.4944 15.3845 15.4427C14.4516 16.3911 13.9315 17.6697 13.9375 19V25C13.9373 25.6422 14.0595 26.2785 14.2975 26.875C14.3808 27.0902 14.4811 27.2983 14.5975 27.4975L14.6725 27.6325C14.77 27.79 14.8675 27.9325 14.9725 28.075L15.1 28.24C15.2125 28.375 15.3325 28.5025 15.4525 28.6225L15.67 28.825L15.955 29.05C16.06 29.1325 16.1725 29.2075 16.285 29.2825C16.3975 29.3575 16.5175 29.425 16.63 29.485L16.87 29.605C17.0275 29.6725 17.185 29.74 17.35 29.7925L17.5075 29.845C17.6897 29.899 17.875 29.9415 18.0625 29.9725H18.2425C18.4636 30.0049 18.6866 30.0224 18.91 30.025H25.075C26.4 30.0112 27.6662 29.4762 28.5997 28.5357C29.5331 27.5953 30.0586 26.325 30.0625 25V19C30.0685 17.6697 29.5484 16.3911 28.6155 15.4427C27.6826 14.4944 26.4127 13.9533 25.0825 13.9375ZM28.9375 25C28.9424 25.5112 28.8466 26.0183 28.6556 26.4925C28.4645 26.9666 28.1819 27.3985 27.824 27.7635C27.466 28.1284 27.0396 28.4192 26.5693 28.6194C26.0989 28.8196 25.5937 28.9251 25.0825 28.93H18.9175C18.6936 28.9252 18.4704 28.9026 18.25 28.8625H18.0925C17.6403 28.7584 17.2108 28.5729 16.825 28.315L16.75 28.225C16.5707 28.097 16.4026 27.954 16.2475 27.7975C16.0649 27.6294 15.8968 27.4463 15.745 27.25L15.67 27.1225C15.6175 27.04 15.5725 26.9425 15.5275 26.8525L17.7775 25.03C18.109 24.758 18.5277 24.615 18.9564 24.6274C19.385 24.6398 19.7947 24.8068 20.11 25.0975C20.3294 25.2984 20.5864 25.4538 20.8663 25.5548C21.1461 25.6557 21.4432 25.7001 21.7404 25.6854C22.0375 25.6708 22.3288 25.5974 22.5973 25.4694C22.8659 25.3415 23.1064 25.1615 23.305 24.94L24.805 23.305C24.9685 23.1231 25.1674 22.9766 25.3896 22.8745C25.6118 22.7723 25.8525 22.7167 26.097 22.7111C26.3415 22.7055 26.5846 22.75 26.8112 22.8418C27.0379 22.9336 27.2433 23.0708 27.415 23.245L28.96 24.8125L28.9375 25ZM28.9375 23.1775L28.1875 22.4275C27.9091 22.1447 27.5759 21.9218 27.2084 21.7722C26.8409 21.6226 26.4467 21.5495 26.05 21.5575C25.6533 21.5655 25.2626 21.6556 24.9024 21.8221C24.5423 21.9886 24.2205 22.228 23.9575 22.525L22.4575 24.1525C22.3577 24.2649 22.2366 24.3563 22.1011 24.4213C21.9657 24.4864 21.8186 24.5239 21.6685 24.5316C21.5184 24.5392 21.3683 24.517 21.2269 24.4661C21.0856 24.4151 20.9557 24.3366 20.845 24.235C20.335 23.7741 19.6777 23.5097 18.9907 23.4891C18.3036 23.4685 17.6317 23.693 17.095 24.1225L15.13 25.69C15.0849 25.4628 15.0623 25.2317 15.0625 25V19C15.0565 17.9702 15.4588 16.98 16.1813 16.2462C16.9039 15.5125 17.8877 15.0949 18.9175 15.085H25.0825C26.1122 15.0949 27.0961 15.5125 27.8186 16.2462C28.5412 16.98 28.9435 17.9702 28.9375 19V23.1775ZM18.8425 16.99C18.4256 16.9826 18.016 17.0994 17.6658 17.3255C17.3155 17.5517 17.0405 17.877 16.8758 18.26C16.7111 18.643 16.6641 19.0664 16.7409 19.4762C16.8176 19.886 17.0146 20.2637 17.3067 20.5612C17.5989 20.8586 17.973 21.0624 18.3813 21.1465C18.7897 21.2306 19.2138 21.1913 19.5997 21.0335C19.9856 20.8757 20.3159 20.6066 20.5483 20.2605C20.7808 19.9144 20.9049 19.5069 20.905 19.09C20.908 18.8165 20.8569 18.5452 20.7548 18.2915C20.6526 18.0378 20.5014 17.8068 20.3098 17.6117C20.1182 17.4166 19.8899 17.2613 19.6381 17.1546C19.3863 17.0479 19.116 16.992 18.8425 16.99ZM18.8425 20.05C18.6507 20.0605 18.4602 20.0133 18.2956 19.9143C18.131 19.8154 17.9998 19.6694 17.919 19.4952C17.8383 19.321 17.8116 19.1265 17.8425 18.937C17.8734 18.7474 17.9604 18.5715 18.0924 18.432C18.2243 18.2924 18.395 18.1956 18.5826 18.1541C18.7701 18.1126 18.9657 18.1283 19.1442 18.1992C19.3227 18.27 19.4758 18.3928 19.5838 18.5516C19.6918 18.7104 19.7497 18.898 19.75 19.09C19.7522 19.3363 19.6589 19.5739 19.4897 19.7529C19.3205 19.9319 19.0885 20.0384 18.8425 20.05Z" fill="#FF6F1E"/>
</svg>
