<svg width="24" height="24" viewBox="0 0 24 24" fill="none" xmlns="http://www.w3.org/2000/svg">
<path opacity="0.1" d="M12.0212 23.4001C11.6262 23.4021 11.2348 23.3251 10.8699 23.1737C10.5051 23.0223 10.1742 22.7995 9.89672 22.5184L8.39895 21.0206C8.3709 20.9931 8.33769 20.9715 8.30122 20.9569C8.26476 20.9423 8.22577 20.9351 8.1865 20.9356H6.062C5.26655 20.9356 4.50352 20.6204 3.94006 20.0589C3.3766 19.4974 3.05864 18.7355 3.05583 17.9401V15.8156C3.057 15.7762 3.05006 15.7371 3.03544 15.7005C3.02082 15.664 2.99884 15.6308 2.97085 15.6031L1.4837 14.1266C1.20364 13.8482 0.98138 13.5172 0.829716 13.1526C0.678053 12.788 0.599976 12.397 0.599976 12.0021C0.599976 11.6072 0.678053 11.2162 0.829716 10.8516C0.98138 10.487 1.20364 10.156 1.4837 9.87761L2.98147 8.36922C3.01121 8.34287 3.03438 8.30995 3.04914 8.27306C3.06389 8.23617 3.06982 8.19635 3.06645 8.15677V6.03227C3.06926 5.23682 3.38722 4.47492 3.95069 3.91345C4.51415 3.35198 5.27717 3.03672 6.07262 3.03672H8.19712C8.23639 3.03728 8.27538 3.03006 8.31185 3.01548C8.34831 3.00089 8.38152 2.97923 8.40957 2.95174L9.89672 1.45397C10.4683 0.906021 11.2294 0.600098 12.0212 0.600098C12.813 0.600098 13.5742 0.906021 14.1457 1.45397L15.6435 2.95174C15.6969 3.00565 15.7695 3.0362 15.8453 3.03672H17.9698C18.7653 3.03953 19.5272 3.35749 20.0886 3.92095C20.6501 4.48442 20.9654 5.24744 20.9654 6.04289V8.16739C20.9648 8.20666 20.972 8.24565 20.9866 8.28211C21.0012 8.31858 21.0229 8.35179 21.0504 8.37984L22.5587 9.87761C23.1192 10.4426 23.4337 11.2063 23.4337 12.0021C23.4337 12.798 23.1192 13.5616 22.5587 14.1266L21.0504 15.6031C20.9983 15.662 20.9683 15.7371 20.9654 15.8156V17.9401C20.9654 18.7346 20.6498 19.4965 20.088 20.0583C19.5262 20.62 18.7643 20.9356 17.9698 20.9356H15.8453C15.7695 20.9362 15.6969 20.9667 15.6435 21.0206L14.1457 22.5184C13.8675 22.7986 13.5365 23.0207 13.1718 23.1721C12.8071 23.3234 12.4161 23.4009 12.0212 23.4001Z" fill="#99A1B7"/>
<path d="M12.0044 23.483C11.6065 23.485 11.2123 23.4075 10.8448 23.255C10.4773 23.1025 10.144 22.8781 9.86445 22.5949L8.35577 21.0862C8.32752 21.0585 8.29406 21.0367 8.25733 21.022C8.2206 21.0073 8.18133 21 8.14177 21.0006H6.0018C5.20056 21.0006 4.43198 20.6831 3.86441 20.1175C3.29685 19.5519 2.97657 18.7845 2.97374 17.9832V15.8433C2.97492 15.8036 2.96793 15.7642 2.9532 15.7274C2.93848 15.6905 2.91633 15.6572 2.88814 15.6293L1.39016 14.142C1.10806 13.8616 0.884182 13.5281 0.731414 13.1609C0.578646 12.7936 0.5 12.3998 0.5 12.002C0.5 11.6043 0.578646 11.2104 0.731414 10.8432C0.884182 10.4759 1.10806 10.1425 1.39016 9.86205L2.89884 8.34267C2.9288 8.31613 2.95213 8.28297 2.967 8.24581C2.98186 8.20866 2.98783 8.16854 2.98444 8.12867V5.9887C2.98727 5.18746 3.30755 4.42001 3.87511 3.85445C4.44268 3.28889 5.21126 2.97133 6.0125 2.97134H8.15247C8.19203 2.9719 8.2313 2.96463 8.26803 2.94994C8.30476 2.93525 8.33822 2.91343 8.36647 2.88574L9.86445 1.37706C10.4402 0.825119 11.2069 0.516968 12.0044 0.516968C12.802 0.516968 13.5687 0.825119 14.1444 1.37706L15.6531 2.88574C15.7069 2.94004 15.78 2.97082 15.8564 2.97134H17.9963C18.7976 2.97417 19.565 3.29444 20.1306 3.86201C20.6962 4.42957 21.0137 5.19816 21.0137 5.9994V8.13937C21.0131 8.17892 21.0204 8.2182 21.0351 8.25493C21.0498 8.29166 21.0716 8.32511 21.0993 8.35337L22.6187 9.86205C23.1832 10.4312 23.5 11.2004 23.5 12.002C23.5 12.8037 23.1832 13.5728 22.6187 14.142L21.0993 15.6293C21.0469 15.6886 21.0167 15.7642 21.0137 15.8433V17.9832C21.0137 18.7835 20.6958 19.551 20.1299 20.1168C19.5641 20.6827 18.7966 21.0006 17.9963 21.0006H15.8564C15.78 21.0011 15.7069 21.0319 15.6531 21.0862L14.1444 22.5949C13.8642 22.8771 13.5307 23.1009 13.1634 23.2533C12.7961 23.4058 12.4021 23.4838 12.0044 23.483V23.483ZM6.0125 4.57632C5.63594 4.57911 5.2756 4.72995 5.00932 4.99622C4.74305 5.2625 4.59222 5.62284 4.58942 5.9994V8.13937C4.58786 8.64433 4.38805 9.12847 4.03303 9.48755L2.52435 10.9855C2.26102 11.2519 2.11333 11.6114 2.11333 11.986C2.11333 12.3605 2.26102 12.72 2.52435 12.9864L4.03303 14.4951C4.21027 14.6719 4.3507 14.8821 4.44621 15.1135C4.54171 15.3449 4.59038 15.5929 4.58942 15.8433V17.9832C4.59224 18.3588 4.74342 18.718 5.00999 18.9826C5.27657 19.2472 5.63692 19.3956 6.0125 19.3956H8.15247C8.65743 19.3972 9.14158 19.597 9.50066 19.952L11.0093 21.4607C11.2814 21.7173 11.6412 21.8602 12.0151 21.8602C12.3891 21.8602 12.7489 21.7173 13.0209 21.4607L14.5296 19.952C14.8841 19.5966 15.3651 19.3965 15.8671 19.3956H18.007C18.3816 19.3956 18.7409 19.2468 19.0058 18.9819C19.2706 18.7171 19.4194 18.3578 19.4194 17.9832V15.8433C19.4221 15.3385 19.6218 14.8548 19.9758 14.4951L21.4952 12.9864C21.756 12.7187 21.9019 12.3597 21.9019 11.986C21.9019 11.6122 21.756 11.2533 21.4952 10.9855L19.9651 9.47685C19.6101 9.11777 19.4103 8.63363 19.4087 8.12867V5.9887C19.4059 5.61498 19.2562 5.25735 18.992 4.99309C18.7277 4.72882 18.3701 4.57911 17.9963 4.57632H15.8564C15.6075 4.57826 15.3608 4.52999 15.1309 4.43439C14.9011 4.33878 14.693 4.19782 14.5189 4.01992L13.0102 2.51124C12.7382 2.25467 12.3784 2.11176 12.0044 2.11176C11.6305 2.11176 11.2707 2.25467 10.9986 2.51124L9.48996 4.01992C9.31425 4.19863 9.10428 4.34002 8.87261 4.43563C8.64095 4.53124 8.39237 4.57909 8.14177 4.57632H6.0125ZM8.79446 16.0145C8.68876 16.0169 8.58373 15.9971 8.48608 15.9566C8.38843 15.9161 8.30031 15.8556 8.22737 15.7791C8.07709 15.6286 7.99268 15.4246 7.99268 15.212C7.99268 14.9993 8.07709 14.7954 8.22737 14.6449L14.6473 8.22497C14.7978 8.07469 15.0017 7.99028 15.2144 7.99028C15.427 7.99028 15.631 8.07469 15.7815 8.22497C15.9318 8.37544 16.0162 8.5794 16.0162 8.79206C16.0162 9.00472 15.9318 9.20869 15.7815 9.35915L9.36156 15.7791C9.28747 15.8541 9.19914 15.9136 9.10176 15.954C9.00438 15.9944 8.8999 16.015 8.79446 16.0145ZM8.79446 7.72207C8.58284 7.72207 8.37597 7.78483 8.20001 7.9024C8.02405 8.01997 7.88691 8.18708 7.80593 8.38259C7.72494 8.57811 7.70375 8.79325 7.74504 9.0008C7.78632 9.20836 7.88823 9.39901 8.03787 9.54866C8.18751 9.6983 8.37816 9.8002 8.58572 9.84149C8.79328 9.88277 9.00842 9.86158 9.20393 9.7806C9.39945 9.69961 9.56655 9.56247 9.68413 9.38651C9.8017 9.21056 9.86445 9.00368 9.86445 8.79206C9.86445 8.50828 9.75172 8.23613 9.55106 8.03547C9.3504 7.83481 9.07824 7.72207 8.79446 7.72207ZM15.2144 14.142C15.0028 14.142 14.7959 14.2047 14.6199 14.3223C14.444 14.4399 14.3068 14.607 14.2258 14.8025C14.1449 14.998 14.1237 15.2132 14.165 15.4207C14.2062 15.6283 14.3081 15.8189 14.4578 15.9686C14.6074 16.1182 14.7981 16.2201 15.0056 16.2614C15.2132 16.3027 15.4283 16.2815 15.6238 16.2005C15.8194 16.1195 15.9865 15.9824 16.104 15.8064C16.2216 15.6305 16.2844 15.4236 16.2844 15.212C16.2844 14.9282 16.1716 14.656 15.971 14.4554C15.7703 14.2547 15.4982 14.142 15.2144 14.142Z" fill="#99A1B7"/>
</svg>
