<svg width="24" height="24" viewBox="0 0 24 24" fill="none" xmlns="http://www.w3.org/2000/svg">
<path opacity="0.1" fill-rule="evenodd" clip-rule="evenodd" d="M6.61107 2.40062C7.3922 1.87868 8.31056 1.6001 9.25002 1.6001C9.8738 1.6001 10.4915 1.72296 11.0678 1.96167C11.6441 2.20038 12.1677 2.55026 12.6088 2.99134C13.0499 3.43242 13.3997 3.95605 13.6385 4.53235C13.8772 5.10865 14 5.72632 14 6.3501C14 7.28956 13.7214 8.20792 13.1995 8.98905C12.6776 9.77019 11.9357 10.379 11.0678 10.7385C10.1998 11.098 9.24476 11.1921 8.32335 11.0088C7.40194 10.8255 6.55557 10.3732 5.89127 9.70885C5.22697 9.04455 4.77457 8.19818 4.5913 7.27678C4.40802 6.35537 4.50208 5.4003 4.8616 4.53235C5.22111 3.6644 5.82993 2.92255 6.61107 2.40062ZM1.90002 17.2C1.90002 14.2804 5.16314 12 9.32314 12C13.4831 12 16.7844 14.2804 16.7844 17.2C16.7844 20.1196 13.4831 22.4 9.32314 22.4C5.16314 22.4 1.90002 20.1196 1.90002 17.2ZM19.2356 10.158C18.516 10.91 17.5271 11.3454 16.4865 11.3684L16.3711 11.3588C16.1886 11.3738 16.0053 11.3738 15.8229 11.3588C15.7287 11.3458 15.638 11.3143 15.556 11.2662C15.474 11.218 15.4023 11.1541 15.3451 11.0781C15.2879 11.0021 15.2463 10.9156 15.2226 10.8235C15.199 10.7313 15.1938 10.6355 15.2074 10.5413L15.2637 10.3793C15.8874 8.58412 16.038 6.66189 15.7057 4.79716L15.6912 4.71753C15.627 4.36666 15.556 3.97953 15.8033 3.73223C15.9386 3.59697 16.1221 3.52098 16.3134 3.52098C17.354 3.49802 18.3611 3.88939 19.1132 4.609C19.8653 5.32861 20.3007 6.3175 20.3236 7.35813C20.3466 8.39877 19.9552 9.40589 19.2356 10.158ZM17.8535 20.4C20.4389 19.9882 22.2392 18.3891 22.2392 16.4931C22.2392 14.2524 19.7686 12.5 16.6182 12.5C16.4277 12.5 16.2451 12.5757 16.1104 12.7104C15.9757 12.845 15.9 13.0277 15.9 13.2182L16.1478 13.6054C17.2331 15.3015 17.5911 17.3547 17.1565 19.3066C17.0841 19.6319 17.0196 20.0127 17.2733 20.2287C17.4032 20.3392 17.5681 20.3999 17.7386 20.4H17.8535Z" fill="#5C5E9B"/>
<path fill-rule="evenodd" clip-rule="evenodd" d="M6.58973 2.31698C7.38692 1.78431 8.32416 1.5 9.28294 1.5C9.91954 1.5 10.5499 1.62539 11.138 1.86901C11.7262 2.11262 12.2606 2.4697 12.7107 2.91984C13.1609 3.36999 13.518 3.90439 13.7616 4.49253C14.0052 5.08067 14.1306 5.71104 14.1306 6.34765C14.1306 7.30642 13.8463 8.24366 13.3136 9.04085C12.7809 9.83804 12.0238 10.4594 11.138 10.8263C10.2523 11.1932 9.27756 11.2892 8.33721 11.1021C7.39686 10.9151 6.53309 10.4534 5.85513 9.77545C5.17718 9.09749 4.71548 8.23372 4.52844 7.29337C4.34139 6.35302 4.43739 5.37832 4.80429 4.49253C5.1712 3.60674 5.79254 2.84964 6.58973 2.31698ZM7.34914 9.20154C7.92056 9.58738 8.59346 9.79534 9.28294 9.79917C10.2104 9.79918 11.1002 9.43208 11.7578 8.77807C12.4155 8.12406 12.7875 7.23633 12.7926 6.30886C12.7926 5.61938 12.5884 4.94533 12.2057 4.37179C11.8231 3.79824 11.2791 3.35087 10.6424 3.08614C10.0058 2.82141 9.30502 2.75116 8.6285 2.88427C7.95198 3.01738 7.33004 3.34788 6.84115 3.83407C6.35226 4.32026 6.01832 4.94036 5.88147 5.61613C5.74461 6.2919 5.81097 6.99307 6.07217 7.63116C6.33337 8.26926 6.77772 8.8157 7.34914 9.20154ZM1.73999 17.2161C1.73999 14.2493 5.05578 11.9321 9.28293 11.9321C13.5101 11.9321 16.8646 14.2493 16.8646 17.2161C16.8646 20.1828 13.5101 22.5 9.28293 22.5C5.05578 22.5 1.73999 20.1828 1.73999 17.2161ZM3.19428 17.2161C3.19428 19.2909 5.97683 21.0457 9.28293 21.0457C12.5793 21.0457 15.3619 19.2909 15.3619 17.2161C15.3619 15.1413 12.589 13.3864 9.28293 13.3864C5.97683 13.3864 3.19428 15.1413 3.19428 17.2161ZM16.5059 11.3991C17.5551 11.376 18.552 10.937 19.2775 10.1788C20.0029 9.42065 20.3975 8.40531 20.3744 7.3562C20.3512 6.30709 19.9123 5.31014 19.1541 4.58467C18.3959 3.8592 17.3805 3.46464 16.3314 3.48778C16.1386 3.48778 15.9536 3.56439 15.8173 3.70076C15.6809 3.83712 15.6043 4.02208 15.6043 4.21493C15.6043 4.40778 15.6809 4.59273 15.8173 4.7291C15.9536 4.86546 16.1386 4.94207 16.3314 4.94207C16.6599 4.93443 16.9867 4.99157 17.2931 5.11022C17.5995 5.22887 17.8795 5.40671 18.1172 5.63358C18.3549 5.86045 18.5456 6.13192 18.6783 6.43248C18.8111 6.73304 18.8833 7.0568 18.891 7.38529C18.8986 7.71377 18.8415 8.04055 18.7228 8.34695C18.6042 8.65336 18.4264 8.93339 18.1995 9.17107C17.9726 9.40875 17.7011 9.59941 17.4006 9.73218C17.1 9.86494 16.7763 9.9372 16.4478 9.94484C16.3122 9.95482 16.1761 9.95482 16.0406 9.94484C15.8498 9.92234 15.6576 9.97429 15.5041 10.0899C15.3506 10.2054 15.2476 10.3757 15.2165 10.5653C15.2028 10.6602 15.208 10.7569 15.2318 10.8498C15.2557 10.9426 15.2976 11.0299 15.3553 11.1065C15.413 11.1831 15.4852 11.2475 15.5679 11.2961C15.6505 11.3446 15.742 11.3764 15.837 11.3894C16.0209 11.4046 16.2057 11.4046 16.3896 11.3894L16.5059 11.3991ZM22.2746 16.5085C22.2746 18.4282 20.4519 20.0473 17.8342 20.4642H17.7178C17.5452 20.4641 17.3782 20.4026 17.2468 20.2907C17.1153 20.1788 17.028 20.0238 17.0004 19.8534C16.9722 19.6635 17.0193 19.4701 17.1315 19.3144C17.2438 19.1586 17.4124 19.0529 17.6015 19.0196C19.4727 18.7287 20.8203 17.6719 20.8203 16.5085C20.8203 15.1027 18.8813 13.9199 16.5835 13.9199C16.3906 13.9199 16.2057 13.8433 16.0693 13.7069C15.9329 13.5705 15.8563 13.3856 15.8563 13.1927C15.8563 12.9999 15.9329 12.8149 16.0693 12.6786C16.2057 12.5422 16.3906 12.4656 16.5835 12.4656C19.7732 12.4656 22.2746 14.2398 22.2746 16.5085Z" fill="#99A1B7"/>
</svg>
