<svg width="24" height="24" viewBox="0 0 24 24" fill="none" xmlns="http://www.w3.org/2000/svg">
<path opacity="0.1" d="M11.9892 12.6734C10.8608 12.6734 9.75786 12.3383 8.82019 11.7105C7.88253 11.0828 7.15242 10.1907 6.72245 9.14744C6.29248 8.10418 6.18202 6.95672 6.40508 5.8506C6.62814 4.74447 7.17467 3.72951 7.97537 2.93442C8.77606 2.13934 9.79484 1.59995 10.9025 1.38467C12.0102 1.16939 13.1568 1.28791 14.197 1.72521C15.2373 2.1625 16.1242 2.89887 16.7453 3.84092C17.3664 4.78297 17.6938 5.88827 17.6859 7.01663C17.6754 8.52056 17.0705 9.95931 16.0033 11.019C14.9361 12.0788 13.4932 12.6735 11.9892 12.6734ZM19.6713 22.7299H4.30716C4.01559 22.7329 3.72693 22.6718 3.46148 22.5512C3.19604 22.4305 2.96026 22.2532 2.77075 22.0316C2.60591 21.8402 2.4848 21.6152 2.41588 21.3723C2.34695 21.1293 2.33187 20.8742 2.37168 20.6248C3.07005 16.4845 7.21038 13.3618 11.9892 13.3618C16.7681 13.3618 20.9084 16.4845 21.6068 20.6248C21.6466 20.8742 21.6315 21.1293 21.5626 21.3723C21.4936 21.6152 21.3725 21.8402 21.2077 22.0316C21.0182 22.2532 20.7824 22.4305 20.5169 22.5512C20.2515 22.6718 19.9628 22.7329 19.6713 22.7299Z" fill="#99A1B7"/>
<path d="M12 12.67C10.869 12.67 9.76344 12.3341 8.82359 11.7048C7.88374 11.0756 7.15192 10.1815 6.72094 9.13579C6.28997 8.09009 6.17925 6.93995 6.40283 5.83124C6.62641 4.72253 7.17423 3.7052 7.97679 2.90826C8.77935 2.11131 9.80051 1.57067 10.9108 1.35489C12.021 1.1391 13.1704 1.2579 14.213 1.69622C15.2556 2.13453 16.1446 2.87262 16.7672 3.81687C17.3898 4.76112 17.7179 5.869 17.71 7C17.6995 8.50745 17.0932 9.94955 16.0235 11.0117C14.9538 12.0739 13.5075 12.67 12 12.67ZM12 2.75C11.1691 2.75004 10.3567 2.99598 9.66527 3.45683C8.97383 3.91769 8.43424 4.57285 8.11445 5.3398C7.79467 6.10675 7.70899 6.95118 7.86822 7.76673C8.02745 8.58228 8.42446 9.33247 9.00924 9.92281C9.59403 10.5132 10.3404 10.9172 11.1544 11.0842C11.9684 11.2511 12.8136 11.1734 13.5836 10.8609C14.3535 10.5484 15.0138 10.015 15.4811 9.32795C15.9485 8.64091 16.2021 7.83091 16.21 7C16.214 6.44415 16.1081 5.89298 15.8984 5.37818C15.6887 4.86337 15.3794 4.39506 14.9882 4.00014C14.597 3.60523 14.1316 3.29149 13.6188 3.07695C13.106 2.86242 12.5559 2.75131 12 2.75ZM19.7 22.75H4.30001C4.00777 22.7529 3.71843 22.6918 3.45236 22.5708C3.1863 22.4499 2.94997 22.2721 2.76001 22.05C2.59479 21.8582 2.4734 21.6327 2.40431 21.3892C2.33523 21.1456 2.32011 20.89 2.36001 20.64C3.06001 16.49 7.21001 13.36 12 13.36C16.79 13.36 20.94 16.49 21.64 20.64C21.6799 20.89 21.6648 21.1456 21.5957 21.3892C21.5266 21.6327 21.4052 21.8582 21.24 22.05C21.0501 22.2721 20.8137 22.4499 20.5477 22.5708C20.2816 22.6918 19.9923 22.7529 19.7 22.75ZM12 14.86C7.93001 14.86 4.42001 17.45 3.84001 20.86C3.83582 20.8941 3.83901 20.9287 3.84936 20.9615C3.85972 20.9943 3.87699 21.0245 3.90001 21.05C3.95005 21.1061 4.01185 21.1504 4.081 21.1797C4.15015 21.2091 4.22493 21.2229 4.30001 21.22H19.7C19.7751 21.2229 19.8499 21.2091 19.919 21.1797C19.9882 21.1504 20.05 21.1061 20.1 21.05C20.123 21.0245 20.1403 20.9943 20.1507 20.9615C20.161 20.9287 20.1642 20.8941 20.16 20.86C19.58 17.45 16.07 14.86 12 14.86Z" fill="#99A1B7"/>
</svg>
