<svg width="28" height="28" viewBox="0 0 28 28" fill="none" xmlns="http://www.w3.org/2000/svg">
<path opacity="0.1" d="M22.1205 3.6167C23.3247 3.62005 24.4789 4.11601 25.3304 4.99561C26.1819 5.87521 26.6612 7.06718 26.6644 8.31104V19.689C26.6612 20.9328 26.1818 22.1248 25.3304 23.0044C24.4789 23.884 23.3247 24.38 22.1205 24.3833H5.82751C4.62332 24.3799 3.46905 23.884 2.61755 23.0044C1.76624 22.1248 1.28676 20.9328 1.28357 19.689V8.31104C1.28677 7.0672 1.76618 5.8752 2.61755 4.99561C3.46905 4.11604 4.62332 3.62007 5.82751 3.6167H22.1205ZM14.0199 8.92529C12.8114 8.9959 11.6786 9.55571 10.8676 10.4839C10.0564 11.4123 9.6322 12.634 9.68787 13.8833C9.63223 15.1325 10.0564 16.3543 10.8676 17.2827C11.6786 18.2108 12.8114 18.7707 14.0199 18.8413C15.2296 18.7708 16.3641 18.2107 17.1771 17.2827C17.99 16.3548 18.417 15.1336 18.3646 13.8833C18.4202 12.6321 17.9946 11.4087 17.181 10.48C16.3673 9.55124 15.2308 8.99266 14.0199 8.92529Z" fill="#99A1B7"/>
<path d="M22.2373 3.5C23.4551 3.50333 24.6223 4.00501 25.4834 4.89453C26.3445 5.78405 26.8298 6.98913 26.833 8.24707V19.7529C26.8298 21.0109 26.3445 22.216 25.4834 23.1055C24.6223 23.995 23.4551 24.4967 22.2373 24.5H5.7627C4.54487 24.4967 3.37774 23.995 2.5166 23.1055C1.6555 22.216 1.17022 21.0109 1.16699 19.7529V8.24707C1.17022 6.98913 1.6555 5.78405 2.5166 4.89453C3.37774 4.00501 4.54487 3.50333 5.7627 3.5H22.2373ZM5.7627 5.39355C5.03011 5.39355 4.32661 5.6944 3.80859 6.22949C3.29072 6.76456 3 7.49044 3 8.24707V19.7529C3 20.5096 3.29071 21.2354 3.80859 21.7705C4.32661 22.3056 5.03011 22.6064 5.7627 22.6064H22.2373C22.9699 22.6064 23.6734 22.3056 24.1914 21.7705C24.7093 21.2354 25 20.5096 25 19.7529V8.24707C25 7.49044 24.7093 6.76456 24.1914 6.22949C23.6734 5.6944 22.9699 5.39355 22.2373 5.39355H5.7627ZM14 8.83594C15.2333 8.90455 16.391 9.474 17.2197 10.4199C18.0483 11.3657 18.4813 12.6115 18.4248 13.8857C18.4782 15.1592 18.0438 16.4035 17.2158 17.3486C16.3877 18.2938 15.2321 18.8647 14 18.9365C12.769 18.8646 11.6151 18.2931 10.7891 17.3477C9.96308 16.4021 9.5312 15.158 9.58789 13.8857C9.53129 12.6135 9.963 11.3693 10.7891 10.4238C11.6151 9.4784 12.7691 8.90783 14 8.83594ZM14 10.6924C13.2542 10.7662 12.5662 11.1391 12.084 11.7314C11.6018 12.324 11.3641 13.0886 11.4219 13.8604C11.3606 14.6343 11.5965 15.4026 12.0791 15.998C12.5617 16.5934 13.2517 16.9682 14 17.042C14.7493 16.9682 15.4412 16.594 15.9258 15.999C16.4104 15.404 16.6496 14.6356 16.5918 13.8604C16.6494 13.0866 16.4096 12.3204 15.9248 11.7275C15.4399 11.1346 14.7483 10.7631 14 10.6924ZM6.27637 12.9766C6.53867 12.9767 6.79006 13.0848 6.97559 13.2764C7.16125 13.4681 7.26562 13.7288 7.26562 14C7.26553 14.2021 7.20732 14.3993 7.09863 14.5674C6.98985 14.7356 6.8352 14.8669 6.6543 14.9443C6.4736 15.0216 6.27481 15.0423 6.08301 15.0029C5.89104 14.9635 5.7146 14.8656 5.57617 14.7227C5.43775 14.5797 5.3429 14.3975 5.30469 14.1992C5.2665 14.0009 5.28645 13.7952 5.36133 13.6084C5.43622 13.4216 5.56292 13.2618 5.72559 13.1494C5.88839 13.037 6.08056 12.9766 6.27637 12.9766ZM21.5166 12.9766C21.7782 12.9798 22.0289 13.0892 22.2139 13.2803C22.3986 13.4713 22.5037 13.73 22.5068 14C22.5067 14.202 22.4485 14.3994 22.3398 14.5674C22.2311 14.7356 22.0764 14.8669 21.8955 14.9443C21.7148 15.0216 21.516 15.0422 21.3242 15.0029C21.1322 14.9635 20.9549 14.8657 20.8164 14.7227C20.6781 14.5797 20.5841 14.3974 20.5459 14.1992C20.5077 14.0009 20.5276 13.7952 20.6025 13.6084C20.6774 13.4216 20.8041 13.2618 20.9668 13.1494C21.1295 13.0371 21.3209 12.9766 21.5166 12.9766Z" fill="#99A1B7"/>
</svg>
