<svg width="28" height="28" viewBox="0 0 28 28" fill="none" xmlns="http://www.w3.org/2000/svg">
<path opacity="0.1" fill-rule="evenodd" clip-rule="evenodd" d="M11.4888 25.8901C12.281 26.2116 13.1289 26.3735 13.9839 26.3664C14.8369 26.3725 15.6827 26.2102 16.4727 25.8886C17.2628 25.5671 17.9816 25.0926 18.5878 24.4925L24.5071 18.536C25.7279 17.3123 26.4135 15.6544 26.4135 13.9259C26.4135 12.1974 25.7279 10.5395 24.5071 9.3158L18.7987 3.59504C18.1123 2.90164 17.2886 2.35916 16.3804 2.00231C15.4723 1.64546 14.4996 1.4821 13.5247 1.52266L7.32001 1.73363C5.86725 1.78065 4.48744 2.38128 3.46311 3.41253C2.43878 4.44378 1.84746 5.82761 1.81022 7.28065L1.63649 13.5846C1.6078 14.547 1.77692 15.505 2.13339 16.3994C2.48985 17.2937 3.02607 18.1054 3.70886 18.7842L9.36757 24.4925C9.97568 25.0936 10.6965 25.5685 11.4888 25.8901ZM10.9795 15.1665C10.2587 15.1686 9.54862 14.9926 8.91227 14.6542C8.27591 14.3157 7.73304 13.8253 7.33189 13.2265C6.93075 12.6276 6.68376 11.939 6.6129 11.2217C6.54203 10.5044 6.64947 9.78076 6.92567 9.11502C7.20187 8.44927 7.63828 7.86208 8.19609 7.40563C8.75391 6.94918 9.41586 6.63763 10.1231 6.49865C10.8303 6.35967 11.561 6.39757 12.25 6.609C12.9391 6.82042 13.5652 7.19881 14.0728 7.71054C14.6864 8.32073 15.1046 9.09959 15.2743 9.94809C15.4441 10.7966 15.3577 11.6764 15.0261 12.4757C14.6945 13.2749 14.1327 13.9575 13.4121 14.4367C12.6916 14.9158 11.8448 15.1699 10.9795 15.1665Z" fill="#99A1B7"/>
<path d="M13.9598 26.5414C13.0968 26.5486 12.2409 26.3852 11.4413 26.0606C10.6416 25.736 9.914 25.2566 9.30018 24.6499L3.58834 18.888C2.89913 18.2028 2.35788 17.3835 1.99807 16.4808C1.63826 15.578 1.46755 14.611 1.4965 13.6396L1.67186 7.27642C1.70945 5.80974 2.30633 4.41291 3.34028 3.37198C4.37422 2.33105 5.76699 1.72478 7.23339 1.67731L13.4964 1.46437C14.4804 1.42342 15.4622 1.58832 16.3789 1.94852C17.2956 2.30873 18.127 2.8563 18.8199 3.55621L24.5819 9.33068C25.8141 10.5658 26.5061 12.2393 26.5061 13.9841C26.5061 15.7288 25.8141 17.4023 24.5819 18.6375L18.607 24.6499C17.9951 25.2556 17.2695 25.7345 16.472 26.0591C15.6746 26.3837 14.8208 26.5476 13.9598 26.5414ZM13.8095 3.35579H13.6342L7.37118 3.56873C6.38254 3.5941 5.4414 3.99815 4.7421 4.69745C4.0428 5.39675 3.63875 6.33789 3.61339 7.32652L3.43802 13.7022C3.40687 14.4123 3.522 15.1211 3.77627 15.7848C4.03053 16.4485 4.4185 17.0528 4.91609 17.5602L10.6279 23.2846C11.5231 24.1413 12.7145 24.6195 13.9536 24.6195C15.1927 24.6195 16.384 24.1413 17.2792 23.2846L23.2541 17.3097C24.1315 16.4252 24.6238 15.2299 24.6238 13.9841C24.6238 12.7383 24.1315 11.5429 23.2541 10.6584L17.4796 4.88396C16.5047 3.91187 15.1862 3.36286 13.8095 3.35579ZM10.9661 15.2179C10.2336 15.22 9.51179 15.0411 8.865 14.6971C8.21821 14.3531 7.66644 13.8547 7.25871 13.246C6.85099 12.6374 6.59996 11.9374 6.52793 11.2084C6.4559 10.4794 6.5651 9.74384 6.84583 9.06718C7.12656 8.39052 7.57012 7.7937 8.13708 7.32977C8.70405 6.86584 9.37685 6.54917 10.0957 6.40791C10.8145 6.26666 11.5571 6.30519 12.2575 6.52008C12.9578 6.73497 13.5942 7.11956 14.1101 7.63967C14.7338 8.25987 15.1588 9.0515 15.3314 9.91391C15.5039 10.7763 15.4161 11.6706 15.079 12.4829C14.742 13.2953 14.171 13.9891 13.4386 14.4761C12.7063 14.9631 11.8456 15.2213 10.9661 15.2179ZM10.9661 8.21587C10.4558 8.20342 9.9533 8.34337 9.52287 8.61785C9.09243 8.89233 8.75358 9.28888 8.54959 9.75686C8.3456 10.2248 8.28573 10.743 8.37762 11.2452C8.46952 11.7473 8.709 12.2107 9.0655 12.5761C9.422 12.9415 9.87932 13.1924 10.3791 13.2966C10.8788 13.4009 11.3983 13.3538 11.8711 13.1615C12.344 12.9691 12.7488 12.6401 13.0338 12.2166C13.3189 11.7931 13.4712 11.2942 13.4713 10.7837C13.475 10.4459 13.4103 10.1109 13.2811 9.79877C13.152 9.48664 12.961 9.20386 12.7198 8.96743C12.2534 8.50099 11.6255 8.23187 10.9661 8.21587ZM15.225 19.9903L20.1727 14.9799C20.2613 14.8935 20.3318 14.7903 20.3799 14.6763C20.428 14.5623 20.4528 14.4398 20.4528 14.316C20.4528 14.1923 20.428 14.0698 20.3799 13.9558C20.3318 13.8417 20.2613 13.7385 20.1727 13.6521C19.9966 13.4762 19.7578 13.3774 19.5088 13.3774C19.2599 13.3774 19.0211 13.4762 18.845 13.6521L13.8346 18.6625C13.6586 18.8387 13.5598 19.0774 13.5598 19.3264C13.5598 19.5754 13.6586 19.8141 13.8346 19.9903C14.0129 20.167 14.2537 20.2661 14.5047 20.2661C14.7557 20.2661 14.9966 20.167 15.1749 19.9903H15.225Z" fill="#99A1B7"/>
</svg>
