<svg width="28" height="28" viewBox="0 0 28 28" fill="none" xmlns="http://www.w3.org/2000/svg">
<path opacity="0.1" fill-rule="evenodd" clip-rule="evenodd" d="M13.4166 15.2835C14.6862 15.2835 15.9273 14.9069 16.9827 14.2013C18.0382 13.4958 18.8606 12.4929 19.3459 11.3198C19.8313 10.1467 19.9577 8.8559 19.7092 7.61088C19.4607 6.36587 18.8484 5.22255 17.9499 4.32561C17.0514 3.42868 15.907 2.81844 14.6616 2.57212C13.4161 2.32581 12.1256 2.45449 10.9533 2.94187C9.781 3.42926 8.77963 4.25345 8.07591 5.31015C7.3722 6.36684 6.99776 7.60854 6.99999 8.87812C6.99999 9.72023 7.16604 10.5541 7.48865 11.332C7.81125 12.1098 8.28408 12.8165 8.88007 13.4114C9.47606 14.0063 10.1835 14.4779 10.962 14.7992C11.7404 15.1204 12.5745 15.285 13.4166 15.2835ZM18.0792 23.4973C18.7235 23.9253 19.4803 24.1525 20.2538 24.1501C21.2883 24.1468 22.2792 23.7337 23.0096 23.001C23.7399 22.2684 24.15 21.2762 24.15 20.2417C24.15 19.4682 23.9204 18.7121 23.4905 18.0691C23.0605 17.4261 22.4493 16.9252 21.7345 16.6298C21.0196 16.3343 20.2332 16.2576 19.4747 16.4094C18.7162 16.5612 18.0198 16.9346 17.4737 17.4825C16.9276 18.0303 16.5564 18.7278 16.4069 19.4867C16.2575 20.2457 16.3366 21.0319 16.6343 21.7458C16.932 22.4598 17.4348 23.0693 18.0792 23.4973ZM13.408 16.2166C7.90602 16.2166 3.1522 19.7964 2.34647 24.5617C2.3267 24.6729 2.32923 24.7869 2.35393 24.8971C2.37863 25.0073 2.425 25.1115 2.49034 25.2036C2.55567 25.2957 2.63868 25.3739 2.73452 25.4337C2.83036 25.4934 2.93713 25.5335 3.04861 25.5516H3.19824H19.8333L15.1666 21.5834L15.75 16.9167L13.408 16.2166Z" fill="#99A1B7"/>
<path d="M13.4195 15.432C14.7176 15.432 15.9866 15.0469 17.0658 14.3255C18.145 13.604 18.9859 12.5787 19.4822 11.3791C19.9784 10.1796 20.1076 8.85981 19.8536 7.5868C19.5995 6.31379 18.9735 5.14476 18.0547 4.22765C17.136 3.31054 15.9659 2.68658 14.6924 2.43473C13.419 2.18287 12.0994 2.31445 10.9008 2.81279C9.70211 3.31114 8.67823 4.15387 7.95869 5.23433C7.23915 6.31478 6.85629 7.58441 6.85857 8.88253C6.85857 9.74358 7.02835 10.5962 7.35821 11.3916C7.68807 12.1869 8.17153 12.9094 8.78092 13.5178C9.39032 14.1261 10.1137 14.6083 10.9096 14.9367C11.7056 15.2652 12.5585 15.4335 13.4195 15.432ZM13.4195 4.04814C14.3757 4.04814 15.3104 4.33167 16.1054 4.86288C16.9004 5.39409 17.52 6.14912 17.8859 7.03249C18.2518 7.91586 18.3476 8.88789 18.161 9.82567C17.9745 10.7635 17.5141 11.6249 16.838 12.301C16.1619 12.9771 15.3004 13.4375 14.3627 13.624C13.4249 13.8106 12.4529 13.7148 11.5695 13.3489C10.6861 12.983 9.93109 12.3634 9.39988 11.5684C8.86867 10.7734 8.58513 9.83868 8.58513 8.88253C8.58513 7.60037 9.09447 6.37072 10.0011 5.4641C10.9077 4.55748 12.1374 4.04814 13.4195 4.04814ZM20.2567 14.8449C19.5149 14.8434 18.7809 14.9961 18.1013 15.2934C17.4216 15.5906 16.8112 16.0258 16.3086 16.5715C15.358 16.3469 14.3849 16.231 13.408 16.2262C7.90602 16.2262 3.1522 19.8059 2.34647 24.5713C2.3267 24.6825 2.32923 24.7965 2.35393 24.9067C2.37863 25.0169 2.425 25.1211 2.49034 25.2132C2.55567 25.3053 2.63868 25.3835 2.73452 25.4433C2.83036 25.503 2.93713 25.5431 3.04861 25.5612H3.19824C3.40091 25.5593 3.59664 25.4871 3.752 25.357C3.90735 25.2268 4.01269 25.0467 4.05002 24.8475C4.70611 20.9109 8.73477 17.9413 13.408 17.9413C14.0333 17.9473 14.657 18.0051 15.2727 18.1139C14.9763 18.7887 14.8235 19.5178 14.8238 20.2549C14.8238 21.3271 15.1418 22.3753 15.7375 23.2668C16.3332 24.1584 17.1799 24.8533 18.1705 25.2636C19.1612 25.6739 20.2512 25.7813 21.3029 25.5721C22.3545 25.3629 23.3205 24.8466 24.0787 24.0884C24.8369 23.3302 25.3533 22.3642 25.5625 21.3125C25.7717 20.2609 25.6643 19.1708 25.254 18.1802C24.8436 17.1895 24.1488 16.3428 23.2572 15.7471C22.3657 15.1514 21.3175 14.8334 20.2452 14.8334L20.2567 14.8449ZM20.2567 23.9612C19.5255 23.9635 18.81 23.7487 18.2009 23.3441C17.5917 22.9395 17.1164 22.3633 16.8349 21.6883C16.5535 21.0134 16.4787 20.2701 16.62 19.5526C16.7612 18.8351 17.1122 18.1757 17.6285 17.6578C18.1448 17.1399 18.8031 16.7869 19.5201 16.6434C20.2372 16.4999 20.9807 16.5724 21.6565 16.8517C22.3323 17.131 22.9101 17.6046 23.3166 18.2124C23.7231 18.8203 23.9401 19.5351 23.9401 20.2664C23.9401 21.2443 23.5524 22.1824 22.8619 22.875C22.1715 23.5676 21.2347 23.9582 20.2567 23.9612ZM22.5588 18.4822C22.7253 18.6196 22.8325 18.8158 22.8582 19.0301C22.8839 19.2444 22.8262 19.4604 22.6969 19.6333L20.7632 22.108C20.6817 22.2104 20.5785 22.2933 20.461 22.3511C20.3436 22.4088 20.2149 22.4398 20.0841 22.4418C19.9546 22.4414 19.827 22.411 19.7112 22.3531C19.5954 22.2952 19.4945 22.2114 19.4165 22.108L18.0122 20.3239C17.887 20.1487 17.8328 19.9325 17.8606 19.719C17.8884 19.5054 17.996 19.3103 18.1618 19.1729C18.3347 19.0437 18.5507 18.9859 18.765 19.0116C18.9793 19.0374 19.1755 19.1445 19.3129 19.311L20.038 20.2433L21.3502 18.6089C21.4923 18.4335 21.6981 18.3216 21.9226 18.2979C22.147 18.2741 22.3717 18.3404 22.5473 18.4822H22.5588Z" fill="#99A1B7"/>
</svg>
