<svg width="28" height="28" viewBox="0 0 28 28" fill="none" xmlns="http://www.w3.org/2000/svg">
<path opacity="0.1" fill-rule="evenodd" clip-rule="evenodd" d="M7.71289 2.80064C8.62421 2.19171 9.69564 1.8667 10.7917 1.8667C11.5194 1.8667 12.24 2.01004 12.9124 2.28853C13.5847 2.56703 14.1956 2.97522 14.7102 3.48982C15.2248 4.00441 15.633 4.61532 15.9115 5.28766C16.19 5.96001 16.3333 6.68062 16.3333 7.40836C16.3333 8.5044 16.0083 9.57583 15.3994 10.4872C14.7905 11.3985 13.925 12.1088 12.9124 12.5282C11.8998 12.9476 10.7855 13.0574 9.71055 12.8435C8.63557 12.6297 7.64814 12.1019 6.87313 11.3269C6.09811 10.5519 5.57032 9.56447 5.35649 8.48949C5.14266 7.41451 5.25241 6.30027 5.67184 5.28766C6.09128 4.27505 6.80157 3.40956 7.71289 2.80064ZM2.21667 20.0666C2.21667 16.6603 6.02365 13.9999 10.877 13.9999C15.7303 13.9999 19.5818 16.6603 19.5818 20.0666C19.5818 23.4728 15.7303 26.1333 10.877 26.1333C6.02365 26.1333 2.21667 23.4728 2.21667 20.0666ZM22.4415 11.8509C21.602 12.7283 20.4482 13.2363 19.2342 13.263L19.0995 13.2518C18.8867 13.2693 18.6728 13.2693 18.46 13.2518C18.3501 13.2367 18.2443 13.2 18.1486 13.1438C18.0529 13.0876 17.9693 13.013 17.9026 12.9244C17.8358 12.8357 17.7873 12.7348 17.7597 12.6273C17.7322 12.5198 17.7261 12.408 17.742 12.2981L17.8076 12.1091C18.5353 10.0147 18.711 7.77212 18.3233 5.59661C18.3178 5.56595 18.3121 5.53495 18.3064 5.50371C18.2314 5.09436 18.1487 4.6427 18.4372 4.35419C18.595 4.19638 18.809 4.10772 19.0322 4.10772C20.2463 4.08094 21.4213 4.53755 22.2987 5.37709C23.1761 6.21663 23.6841 7.37034 23.7109 8.58441C23.7376 9.79848 23.281 10.9735 22.4415 11.8509ZM20.829 23.7999C23.8454 23.3195 25.9457 21.4539 25.9457 19.2419C25.9457 16.6277 23.0634 14.5833 19.3879 14.5833C19.1657 14.5833 18.9525 14.6715 18.7954 14.8287C18.6383 14.9858 18.55 15.1989 18.55 15.4211L18.8391 15.8729C20.1053 17.8516 20.5229 20.247 20.0159 22.5243C19.9314 22.9038 19.8562 23.348 20.1522 23.6C20.3037 23.729 20.4961 23.7998 20.695 23.7999H20.829Z" fill="#5C5E9B"/>
<path fill-rule="evenodd" clip-rule="evenodd" d="M7.68806 2.70314C8.61811 2.08169 9.71156 1.75 10.8301 1.75C11.5728 1.75 12.3083 1.89629 12.9944 2.18051C13.6806 2.46473 14.3041 2.88131 14.8292 3.40648C15.3544 3.93165 15.771 4.55512 16.0552 5.24129C16.3394 5.92745 16.4857 6.66288 16.4857 7.40559C16.4857 8.52416 16.154 9.61761 15.5326 10.5477C14.9111 11.4777 14.0279 12.2026 12.9944 12.6307C11.961 13.0587 10.8239 13.1707 9.72678 12.9525C8.62971 12.7343 7.62198 12.1956 6.83103 11.4047C6.04008 10.6137 5.50144 9.60601 5.28322 8.50894C5.06499 7.41186 5.17699 6.27471 5.60505 5.24129C6.03311 4.20786 6.758 3.32458 7.68806 2.70314ZM8.57403 10.7351C9.24069 11.1853 10.0257 11.4279 10.8301 11.4324C11.9122 11.4324 12.9503 11.0041 13.7175 10.2411C14.4848 9.47807 14.9188 8.44238 14.9248 7.36034C14.9248 6.55594 14.6865 5.76956 14.2401 5.10042C13.7936 4.43127 13.159 3.90935 12.4162 3.6005C11.6735 3.29164 10.8559 3.20969 10.0666 3.36499C9.27735 3.52028 8.55176 3.90586 7.98139 4.47309C7.41101 5.04031 7.02142 5.76375 6.86175 6.55215C6.70209 7.34055 6.77951 8.15858 7.08424 8.90303C7.38898 9.64747 7.90738 10.285 8.57403 10.7351ZM2.03003 20.0854C2.03003 16.6242 5.89845 13.9208 10.8301 13.9208C15.7618 13.9208 19.6755 16.6242 19.6755 20.0854C19.6755 23.5466 15.7618 26.25 10.8301 26.25C5.89845 26.25 2.03003 23.5466 2.03003 20.0854ZM3.72671 20.0854C3.72671 22.506 6.97301 24.5533 10.8301 24.5533C14.6759 24.5533 17.9222 22.506 17.9222 20.0854C17.9222 17.6648 14.6872 15.6175 10.8301 15.6175C6.97301 15.6175 3.72671 17.6648 3.72671 20.0854ZM19.257 13.299C20.4809 13.272 21.644 12.7599 22.4904 11.8753C23.3368 10.9908 23.7971 9.8062 23.7701 8.58223C23.7431 7.35827 23.231 6.19516 22.3465 5.34878C21.4619 4.5024 20.2773 4.04208 19.0534 4.06908C18.8284 4.06908 18.6126 4.15845 18.4535 4.31755C18.2944 4.47664 18.205 4.69242 18.205 4.91741C18.205 5.14241 18.2944 5.35819 18.4535 5.51728C18.6126 5.67637 18.8284 5.76575 19.0534 5.76575C19.4366 5.75684 19.8178 5.8235 20.1753 5.96192C20.5328 6.10035 20.8595 6.30782 21.1368 6.57251C21.4141 6.83719 21.6365 7.1539 21.7914 7.50456C21.9463 7.85521 22.0306 8.23293 22.0395 8.61617C22.0484 8.9994 21.9818 9.38064 21.8434 9.73811C21.7049 10.0956 21.4975 10.4223 21.2328 10.6996C20.9681 10.9769 20.6514 11.1993 20.3007 11.3542C19.9501 11.5091 19.5723 11.5934 19.1891 11.6023C19.031 11.614 18.8722 11.614 18.714 11.6023C18.4914 11.5761 18.2672 11.6367 18.0882 11.7715C17.9091 11.9063 17.7889 12.105 17.7526 12.3262C17.7366 12.4369 17.7427 12.5497 17.7705 12.6581C17.7983 12.7664 17.8473 12.8682 17.9145 12.9576C17.9818 13.0469 18.0661 13.1221 18.1625 13.1787C18.259 13.2354 18.3657 13.2724 18.4765 13.2877C18.6911 13.3053 18.9067 13.3053 19.1212 13.2877L19.257 13.299ZM25.9871 19.2599C25.9871 21.4995 23.8606 23.3885 20.8066 23.8749H20.6708C20.4694 23.8748 20.2746 23.8031 20.1213 23.6725C19.9679 23.5419 19.866 23.3611 19.8338 23.1623C19.8009 22.9407 19.8558 22.7151 19.9868 22.5334C20.1178 22.3517 20.3145 22.2284 20.5351 22.1895C22.7182 21.8502 24.2904 20.6173 24.2904 19.2599C24.2904 17.6198 22.0282 16.2398 19.3474 16.2398C19.1224 16.2398 18.9067 16.1505 18.7476 15.9914C18.5885 15.8323 18.4991 15.6165 18.4991 15.3915C18.4991 15.1665 18.5885 14.9507 18.7476 14.7916C18.9067 14.6326 19.1224 14.5432 19.3474 14.5432C23.0688 14.5432 25.9871 16.6131 25.9871 19.2599Z" fill="#99A1B7"/>
</svg>
